HIERARCHY
ROOT Hips
{
	OFFSET -0.001795 -0.223333 0.028219
	CHANNELS 6 Xposition Yposition Zposition Zrotation Yrotation Xrotation 
	JOINT LeftUpLeg
	{
		OFFSET 0.069520 -0.091406 -0.006815
		CHANNELS 3 Zrotation Yrotation Xrotation
		JOINT LeftLeg
		{
			OFFSET 0.034277 -0.375199 -0.004496
			CHANNELS 3 Zrotation Yrotation Xrotation
			JOINT LeftFoot
			{
				OFFSET -0.013596 -0.397961 -0.043693
				CHANNELS 3 Zrotation Yrotation Xrotation
				JOINT LeftToe
				{
					OFFSET 0.026358 -0.055791 0.119288
					CHANNELS 3 Zrotation Yrotation Xrotation
					End Site
					{
						OFFSET 0.000000 0.000000 0.000000
					}
				}
			}
		}
	}
	JOINT RightUpLeg
	{
		OFFSET -0.067670 -0.090522 -0.004320
		CHANNELS 3 Zrotation Yrotation Xrotation
		JOINT RightLeg
		{
			OFFSET -0.038290 -0.382569 -0.008850
			CHANNELS 3 Zrotation Yrotation Xrotation
			JOINT RightFoot
			{
				OFFSET 0.015774 -0.398415 -0.042312
				CHANNELS 3 Zrotation Yrotation Xrotation
				JOINT RightToe
				{
					OFFSET -0.025372 -0.048144 0.123348
					CHANNELS 3 Zrotation Yrotation Xrotation
					End Site
					{
						OFFSET 0.000000 0.000000 0.000000
					}
				}
			}
		}
	}
	JOINT Spine
	{
		OFFSET -0.002533 0.108963 -0.026696
		CHANNELS 3 Zrotation Yrotation Xrotation
		JOINT Spine1
		{
			OFFSET 0.005487 0.135180 0.001092
			CHANNELS 3 Zrotation Yrotation Xrotation
			JOINT Spine2
			{
				OFFSET 0.001457 0.052922 0.025425
				CHANNELS 3 Zrotation Yrotation Xrotation
				JOINT Neck
				{
					OFFSET -0.002778 0.213870 -0.042857
					CHANNELS 3 Zrotation Yrotation Xrotation
					JOINT Head
					{
						OFFSET 0.005152 0.064970 0.051349
						CHANNELS 3 Zrotation Yrotation Xrotation
						End Site
						{
							OFFSET 0.000000 0.000000 0.000000
						}
					}
				}
				JOINT LeftShoulder
				{
					OFFSET 0.078845 0.121749 -0.034090
					CHANNELS 3 Zrotation Yrotation Xrotation
					JOINT LeftArm
					{
						OFFSET 0.090977 0.030469 -0.008868
						CHANNELS 3 Zrotation Yrotation Xrotation
						JOINT LeftForeArm
						{
							OFFSET 0.259612 -0.012772 -0.027456
							CHANNELS 3 Zrotation Yrotation Xrotation
							JOINT LeftHand
							{
								OFFSET 0.249234 0.008986 -0.001171
								CHANNELS 3 Zrotation Yrotation Xrotation
								End Site
								{
									OFFSET 0.000000 0.000000 0.000000
								}
							}
						}
					}
				}
				JOINT RightShoulder
				{
					OFFSET -0.081759 0.118833 -0.038615
					CHANNELS 3 Zrotation Yrotation Xrotation
					JOINT RightArm
					{
						OFFSET -0.096012 0.032551 -0.009143
						CHANNELS 3 Zrotation Yrotation Xrotation
						JOINT RightForeArm
						{
							OFFSET -0.253742 -0.013329 -0.021401
							CHANNELS 3 Zrotation Yrotation Xrotation
							JOINT RightHand
							{
								OFFSET -0.255298 0.007772 -0.005559
								CHANNELS 3 Zrotation Yrotation Xrotation
								End Site
								{
									OFFSET 0.000000 0.000000 0.000000
								}
							}
						}
					}
				}
			}
		}
	}
}
MOTION
Frames: 14
Frame Time: 0.050000
-0.014396 0.949259 -0.043919 0.195699 2.063656 9.140057 0.003828 -0.484440 -5.337449 -1.463318 0.245699 -4.587323 2.809178 8.981543 10.239854 0.000000 0.000000 0.000000 -1.520212 0.660644 -6.933368 0.142284 -0.051120 -0.949763 -1.288199 -5.661471 6.721015 0.000000 0.000000 0.000000 6.594670 -0.143259 -1.149395 -3.025940 1.296718 -29.171413 0.202532 13.553530 27.333503 8.059126 0.072113 -30.885602 0.000000 0.000000 0.000000 -13.974816 3.091486 -5.179295 -69.105878 3.474301 -14.038619 -3.946950 -36.402731 1.929233 0.000000 0.000000 0.000000 22.186619 -14.554651 -6.420293 69.397154 -3.826685 -10.113865 8.560702 49.673483 9.896987 0.000000 0.000000 0.000000 
-0.015017 0.949419 -0.045596 0.323757 2.495713 9.380081 -0.000483 -0.506337 -5.581110 -1.468954 0.249273 -4.842444 2.936444 9.377107 10.819870 0.000000 0.000000 0.000000 -1.597374 0.673453 -7.114816 0.018521 -0.041502 -1.016894 -1.662732 -6.463381 6.843264 0.000000 0.000000 0.000000 6.619693 -0.125264 -1.411280 -3.330286 1.352354 -29.039784 0.039086 13.242172 27.230625 8.021332 0.067709 -30.732961 0.000000 0.000000 0.000000 -14.831348 2.370920 -5.084865 -68.482327 3.674055 -13.849694 -4.953263 -37.917061 2.333050 0.000000 0.000000 0.000000 22.536189 -13.856464 -5.981524 69.474076 -3.383367 -9.944635 6.971204 50.552230 9.396932 0.000000 0.000000 0.000000 
-0.015605 0.949840 -0.047253 0.432347 2.731783 9.277634 -0.042337 -0.495983 -5.467309 -1.415146 0.242250 -4.691646 3.020653 9.611179 11.122000 0.000000 0.000000 0.000000 -1.801434 0.659279 -7.017524 0.254276 -0.061407 -0.924719 -2.119738 -7.478563 7.066893 0.000000 0.000000 0.000000 6.737534 -0.150517 -1.174288 -3.487225 1.384327 -28.900103 -0.100169 13.264232 27.122533 8.116718 0.044847 -30.709949 0.000000 0.000000 0.000000 -15.302761 1.762875 -4.974174 -68.267983 3.956368 -13.882814 -5.978737 -40.618858 2.822026 0.000000 0.000000 0.000000 22.760163 -13.146531 -5.471231 69.147461 -2.684798 -9.575584 6.079555 51.889874 9.359505 0.000000 0.000000 0.000000 
-0.016200 0.950514 -0.048954 0.425599 3.061617 8.713192 0.101389 -0.458127 -5.076032 -1.629445 0.245090 -4.211430 3.392316 10.300472 11.378564 0.000000 0.000000 0.000000 -1.956937 0.604840 -6.427659 0.518527 -0.081202 -0.719062 -2.461945 -8.240916 7.334257 0.000000 0.000000 0.000000 6.922070 -0.192125 -0.705485 -3.709815 1.436875 -28.419331 -0.284930 13.250376 27.026771 8.199113 0.083799 -31.117467 0.000000 0.000000 0.000000 -15.264823 0.764367 -4.520935 -68.322247 3.736883 -13.775744 -7.717941 -44.558306 3.752748 0.000000 0.000000 0.000000 22.767756 -12.410450 -4.933715 69.117168 -2.017293 -9.214973 5.885336 53.417537 9.700011 0.000000 0.000000 0.000000 
-0.016889 0.951614 -0.050673 0.290388 3.171855 8.355248 0.413703 -0.448540 -4.999105 -1.655997 0.234600 -3.558409 3.767857 10.970801 11.662434 0.000000 0.000000 0.000000 -2.030639 0.589192 -6.272335 0.788839 -0.105344 -0.594733 -2.484809 -8.404964 7.885645 0.000000 0.000000 0.000000 7.046408 -0.216908 -0.426696 -3.836742 1.467574 -28.152221 -0.317535 13.250840 27.006116 8.319856 0.071625 -31.425375 0.000000 0.000000 0.000000 -14.831366 0.591048 -4.331403 -68.062671 3.320547 -13.512078 -9.946026 -49.543452 5.150867 0.000000 0.000000 0.000000 22.581490 -12.028294 -4.648132 68.562709 -1.526928 -8.915990 6.360624 55.251288 10.466775 0.000000 0.000000 0.000000 
-0.017644 0.952682 -0.052462 0.165394 3.219405 8.135327 0.638940 -0.445517 -4.987390 -1.478918 0.215936 -3.233136 4.082636 11.573650 12.157872 0.000000 0.000000 0.000000 -2.079087 0.574694 -6.112755 0.916413 -0.117018 -0.535331 -2.727097 -8.984849 8.259744 0.000000 0.000000 0.000000 7.151685 -0.227339 -0.316932 -3.916781 1.491667 -27.756696 -0.395150 13.358945 26.898726 8.513689 -0.023896 -31.301094 0.000000 0.000000 0.000000 -14.569843 0.224493 -4.104327 -67.718629 2.191527 -12.799047 -11.792152 -55.447568 6.717471 0.000000 0.000000 0.000000 22.879806 -11.770424 -4.446054 67.932984 -0.978011 -8.644466 7.030652 58.788600 11.885223 0.000000 0.000000 0.000000 
-0.018437 0.953512 -0.054225 0.084587 3.863514 8.269112 0.949605 -0.461717 -5.206444 -1.349406 0.201410 -3.081484 4.173004 11.889255 12.710681 0.000000 0.000000 0.000000 -2.189752 0.564810 -6.036623 0.890137 -0.115506 -0.540612 -3.088171 -9.790809 8.936511 0.000000 0.000000 0.000000 7.110752 -0.189610 -0.731702 -3.870061 1.491630 -27.495798 -0.491440 12.960968 26.921872 8.355351 0.029460 -31.059080 0.000000 0.000000 0.000000 -14.157700 0.234118 -3.994596 -67.695977 0.982331 -12.156975 -14.333278 -61.784323 9.087978 0.000000 0.000000 0.000000 22.781497 -11.625333 -4.339172 67.536516 -0.917827 -8.605124 8.761069 62.459532 14.062439 0.000000 0.000000 0.000000 
-0.019292 0.953871 -0.056045 0.103287 4.151438 8.058813 1.378357 -0.450579 -5.110935 -1.389178 0.197362 -2.788796 4.503338 12.549387 13.381771 0.000000 0.000000 0.000000 -2.573418 0.519239 -5.563498 0.933031 -0.121840 -0.578871 -3.392686 -10.455342 9.396882 0.000000 0.000000 0.000000 7.193949 -0.174361 -0.877501 -4.153437 1.559784 -27.116461 -0.675517 12.831227 26.935285 8.334706 0.047672 -31.063545 0.000000 0.000000 0.000000 -13.213318 -1.127809 -3.102764 -67.342140 -1.749655 -10.604481 -10.818419 -68.823146 7.898477 0.000000 0.000000 0.000000 22.489887 -10.817070 -3.776161 68.071459 0.220893 -7.987352 7.514091 65.615793 14.426076 0.000000 0.000000 0.000000 
-0.020264 0.954426 -0.057883 0.080869 4.278513 7.811467 1.488329 -0.446366 -5.074056 -1.463549 0.194879 -2.414141 4.630223 12.797143 13.621897 0.000000 0.000000 0.000000 -2.615823 0.516202 -5.562296 0.726843 -0.086097 -0.137082 -3.518709 -10.706160 9.464228 0.000000 0.000000 0.000000 7.180363 -0.192695 -0.640505 -4.320944 1.597905 -27.023157 -0.853712 12.795958 26.515221 8.550611 -0.021526 -31.292347 0.000000 0.000000 0.000000 -12.364226 -2.084070 -2.465847 -67.242767 -4.328862 -9.132939 -2.217815 -75.606027 2.126704 0.000000 0.000000 0.000000 22.170368 -10.566089 -3.601417 68.374299 0.207150 -7.919855 11.359299 68.782240 18.142651 0.000000 0.000000 0.000000 
-0.021211 0.954825 -0.059716 -0.067216 4.882318 7.539239 1.550570 -0.445211 -5.070497 -1.646238 0.204039 -2.271759 5.040031 13.481657 13.698254 0.000000 0.000000 0.000000 -2.677136 0.505419 -5.487413 0.578837 -0.061325 0.146300 -3.895756 -11.420529 9.609742 0.000000 0.000000 0.000000 7.085538 -0.211575 -0.394018 -4.451241 1.638332 -26.671839 -0.869895 12.254149 25.835572 8.533151 -0.019129 -31.420959 0.000000 0.000000 0.000000 -11.772396 -2.974682 -1.900608 -67.288103 -7.118659 -7.502058 25.369448 -81.108411 -21.374385 0.000000 0.000000 0.000000 22.068485 -10.109864 -3.350267 68.477615 0.688701 -7.608834 14.636854 71.875560 21.717715 0.000000 0.000000 0.000000 
-0.022079 0.955372 -0.061396 -0.161304 5.316427 7.382338 1.571159 -0.422264 -4.785558 -1.646828 0.205052 -2.400689 5.172066 13.729190 13.772080 0.000000 0.000000 0.000000 -2.748607 0.493146 -5.380706 0.483200 -0.044253 0.351079 -4.050478 -11.721147 9.888080 0.000000 0.000000 0.000000 6.742535 -0.204795 -0.324049 -4.300540 1.616255 -26.490433 -0.793380 12.179949 25.693816 8.274114 0.154030 -31.478123 0.000000 0.000000 0.000000 -11.103134 -3.251287 -1.657184 -67.344099 -9.530801 -6.191932 62.744890 -82.894442 -56.235939 0.000000 0.000000 0.000000 21.896694 -9.639493 -3.003306 68.254130 0.829785 -7.494516 19.419157 75.414402 27.100350 0.000000 0.000000 0.000000 
-0.022950 0.955618 -0.063023 -0.179436 5.697358 7.511030 1.492712 -0.435884 -4.946505 -1.382408 0.189233 -2.641550 5.168870 13.819345 14.097983 0.000000 0.000000 0.000000 -2.818974 0.470924 -5.101905 0.276843 -0.032287 0.004270 -4.569030 -12.754972 10.352937 0.000000 0.000000 0.000000 6.503219 -0.188739 -0.451731 -4.263264 1.614628 -26.294700 -0.710012 12.059716 25.453044 8.266189 0.123761 -31.049478 0.000000 0.000000 0.000000 -10.449694 -3.503860 -1.410556 -67.051823 -11.873429 -4.856744 97.502700 -80.916477 -88.072566 0.000000 0.000000 0.000000 21.409600 -9.146199 -2.669940 68.720184 1.368597 -7.106750 26.705921 78.582873 34.996516 0.000000 0.000000 0.000000 
-0.023774 0.956094 -0.064477 -0.125889 6.225600 7.568343 1.385524 -0.425044 -4.805373 -1.108769 0.181359 -3.217167 5.315979 14.205071 14.803872 0.000000 0.000000 0.000000 -2.856871 0.463803 -5.047971 0.179472 -0.024466 -0.082606 -4.849170 -13.269694 10.618918 0.000000 0.000000 0.000000 6.445350 -0.188766 -0.462287 -4.253208 1.619400 -26.192263 -0.695086 11.942839 25.093308 7.943198 0.300103 -30.827263 0.000000 0.000000 0.000000 -9.688908 -3.610896 -1.229128 -67.478910 -13.765766 -3.868126 110.303572 -78.345132 -98.747815 0.000000 0.000000 0.000000 20.809864 -8.786646 -2.417032 69.226916 1.841525 -6.684842 37.127623 80.892389 45.817269 0.000000 0.000000 0.000000 
-0.024535 0.956053 -0.065644 -0.066970 6.683521 7.190071 1.439739 -0.395739 -4.451703 -0.783150 0.162540 -3.349858 5.620321 14.778064 15.399457 0.000000 0.000000 0.000000 -2.873705 0.394927 -4.168792 0.067877 -0.016966 -0.226387 -5.317155 -14.141059 10.630552 0.000000 0.000000 0.000000 6.574743 -0.174333 -0.592725 -4.550271 1.701274 -25.762887 -0.830447 11.745805 24.913018 8.124757 0.203232 -30.690396 0.000000 0.000000 0.000000 -9.065919 -4.258039 -0.826579 -67.305436 -14.941327 -3.227790 116.488514 -74.824894 -101.874917 0.000000 0.000000 0.000000 19.856550 -7.712327 -1.780410 69.975680 2.977940 -5.858855 48.699301 83.094422 58.377497 0.000000 0.000000 0.000000 
